<svg width="160" height="160" viewBox="0 0 160 160" fill="none" xmlns="http://www.w3.org/2000/svg">
<path fill-rule="evenodd" clip-rule="evenodd" d="M132.685 101.969C122.299 94.775 108.048 97.3636 100.854 107.75C93.6602 118.136 96.2484 132.388 106.635 139.582C117.022 146.775 131.274 144.187 138.467 133.8C145.66 123.414 143.072 109.162 132.685 101.969ZM26.7286 56.0601C37.1153 63.2537 51.3668 60.6656 58.5605 50.2784C65.7536 39.8923 63.1655 25.6402 52.7788 18.4471C42.3927 11.2535 28.1406 13.8421 20.9475 24.2288C13.7533 34.6149 16.342 48.8664 26.7286 56.0601ZM137.216 36.3725L39.7532 145L17.6874 125.203L115.149 16.5746L137.216 36.3725Z" fill="#FF620F"/>
</svg>
